<svg width="455" height="315" viewBox="0 0 455 315" fill="none" xmlns="http://www.w3.org/2000/svg">
<path d="M98.6586 5.208H80.9466V51H75.6906V5.208H57.9786V0.599997H98.6586V5.208ZM109.451 0.599997H114.707V42.36L146.963 0.599997H151.787V51H146.531V9.312L114.275 51H109.451V0.599997ZM223.494 5.208H205.782V51H200.526V5.208H182.814V0.599997H223.494V5.208ZM264.011 37.536H235.931L229.883 51H224.339L247.379 0.599997H252.635L275.675 51H270.059L264.011 37.536ZM262.067 33.216L249.971 6.144L237.875 33.216H262.067ZM303.477 27.888H291.957V51H286.773V0.599997H291.957V23.208H303.477L320.541 0.599997H326.301L307.581 25.08L327.381 51H321.261L303.477 27.888ZM368.704 37.536H340.624L334.576 51H329.032L352.072 0.599997H357.328L380.368 51H374.752L368.704 37.536ZM366.76 33.216L354.664 6.144L342.568 33.216H366.76ZM130.937 98.104H106.961L107.033 139H95.4413V88.6H131.009L130.937 98.104ZM163.916 128.2H140.516L136.052 139H124.1L146.564 88.6H158.084L180.62 139H168.38L163.916 128.2ZM160.244 119.344L152.252 100.048L144.26 119.344H160.244ZM210.559 88.6C215.023 88.6 218.887 89.344 222.151 90.832C225.463 92.32 228.007 94.432 229.783 97.168C231.559 99.904 232.447 103.144 232.447 106.888C232.447 110.584 231.559 113.824 229.783 116.608C228.007 119.344 225.463 121.456 222.151 122.944C218.887 124.384 215.023 125.104 210.559 125.104H200.407V139H188.743V88.6H210.559ZM209.911 115.6C213.415 115.6 216.079 114.856 217.903 113.368C219.727 111.832 220.639 109.672 220.639 106.888C220.639 104.056 219.727 101.896 217.903 100.408C216.079 98.872 213.415 98.104 209.911 98.104H200.407V115.6H209.911ZM287.806 88.6V139H276.142V118.336H253.246V139H241.582V88.6H253.246V108.472H276.142V88.6H287.806ZM336.001 128.2H312.601L308.137 139H296.185L318.649 88.6H330.169L352.705 139H340.465L336.001 128.2ZM332.329 119.344L324.337 100.048L316.345 119.344H332.329ZM362.269 131.512C363.373 131.512 364.285 131.896 365.005 132.664C365.725 133.384 366.085 134.296 366.085 135.4C366.085 135.976 365.989 136.6 365.797 137.272C365.653 137.944 365.413 138.712 365.077 139.576L362.053 149.512H358.597L361.045 139.072C360.277 138.832 359.653 138.4 359.173 137.776C358.693 137.104 358.453 136.312 358.453 135.4C358.453 134.296 358.813 133.384 359.533 132.664C360.253 131.896 361.165 131.512 362.269 131.512ZM32.599 185.7V227H28.292V214.492H15.961C15.4103 214.492 14.6237 214.453 13.601 214.374L4.92799 227H0.266986L9.64799 213.607C6.61932 212.702 4.29865 211.109 2.68599 208.828C1.07332 206.507 0.266986 203.675 0.266986 200.332C0.266986 195.691 1.72232 192.092 4.63299 189.535C7.58299 186.978 11.5557 185.7 16.551 185.7H32.599ZM4.63299 200.214C4.63299 203.597 5.61632 206.212 7.58299 208.061C9.58899 209.87 12.4997 210.775 16.315 210.775H28.292V189.476H16.728C12.8733 189.476 9.88399 190.4 7.75999 192.249C5.67532 194.058 4.63299 196.713 4.63299 200.214ZM61.4159 208.061H51.9759V227H47.7279V185.7H51.9759V204.226H61.4159L75.3989 185.7H80.1189L64.7789 205.76L81.0039 227H75.9889L61.4159 208.061Z" fill="black"/>
<path d="M144.84 200.72C147.912 201.632 150.264 203.12 151.896 205.184C153.528 207.248 154.344 209.792 154.344 212.816C154.344 217.28 152.64 220.76 149.232 223.256C145.872 225.752 141.048 227 134.76 227H109.92V176.6H133.392C139.248 176.6 143.808 177.728 147.072 179.984C150.336 182.24 151.968 185.456 151.968 189.632C151.968 192.128 151.344 194.336 150.096 196.256C148.848 198.128 147.096 199.616 144.84 200.72ZM121.512 197.48H132.384C134.928 197.48 136.848 196.976 138.144 195.968C139.44 194.912 140.088 193.376 140.088 191.36C140.088 189.392 139.416 187.88 138.072 186.824C136.776 185.768 134.88 185.24 132.384 185.24H121.512V197.48ZM134.328 218.36C139.8 218.36 142.536 216.2 142.536 211.88C142.536 207.704 139.8 205.616 134.328 205.616H121.512V218.36H134.328ZM204.033 217.64V227H165.009V176.6H203.097V185.96H176.601V196.904H200.001V205.976H176.601V217.64H204.033ZM238.586 227.864C233.45 227.864 228.794 226.76 224.618 224.552C220.49 222.296 217.226 219.2 214.826 215.264C212.474 211.28 211.298 206.792 211.298 201.8C211.298 196.808 212.474 192.344 214.826 188.408C217.226 184.424 220.49 181.328 224.618 179.12C228.794 176.864 233.474 175.736 238.658 175.736C243.026 175.736 246.962 176.504 250.466 178.04C254.018 179.576 256.994 181.784 259.394 184.664L251.906 191.576C248.498 187.64 244.274 185.672 239.234 185.672C236.114 185.672 233.33 186.368 230.882 187.76C228.434 189.104 226.514 191 225.122 193.448C223.778 195.896 223.106 198.68 223.106 201.8C223.106 204.92 223.778 207.704 225.122 210.152C226.514 212.6 228.434 214.52 230.882 215.912C233.33 217.256 236.114 217.928 239.234 217.928C244.274 217.928 248.498 215.936 251.906 211.952L259.394 218.864C256.994 221.792 254.018 224.024 250.466 225.56C246.914 227.096 242.954 227.864 238.586 227.864ZM314.66 176.6V227H302.996V206.336H280.1V227H268.436V176.6H280.1V196.472H302.996V176.6H314.66ZM368.975 176.6V227H357.455V213.608H346.799L337.871 227H325.559L336.071 211.808C332.663 210.416 330.047 208.328 328.223 205.544C326.399 202.712 325.487 199.328 325.487 195.392C325.487 191.504 326.375 188.168 328.151 185.384C329.927 182.552 332.447 180.392 335.711 178.904C338.975 177.368 342.815 176.6 347.231 176.6H368.975ZM347.519 186.104C344.207 186.104 341.663 186.872 339.887 188.408C338.159 189.944 337.295 192.224 337.295 195.248C337.295 198.176 338.135 200.432 339.815 202.016C341.495 203.6 343.967 204.392 347.231 204.392H357.455V186.104H347.519ZM429.266 176.6V227H417.602V206.336H394.706V227H383.042V176.6H394.706V196.472H417.602V176.6H429.266ZM443.334 176.6H454.926V227H443.334V176.6ZM135.361 294.696H127.297V315H115.705V264.6H127.297V284.976H135.649L148.897 264.6H161.209L144.721 288.936L161.713 315H148.465L135.361 294.696ZM203.537 288.72C206.609 289.632 208.961 291.12 210.593 293.184C212.225 295.248 213.041 297.792 213.041 300.816C213.041 305.28 211.337 308.76 207.929 311.256C204.569 313.752 199.745 315 193.457 315H168.617V264.6H192.089C197.945 264.6 202.505 265.728 205.769 267.984C209.033 270.24 210.665 273.456 210.665 277.632C210.665 280.128 210.041 282.336 208.793 284.256C207.545 286.128 205.793 287.616 203.537 288.72ZM180.209 285.48H191.081C193.625 285.48 195.545 284.976 196.841 283.968C198.137 282.912 198.785 281.376 198.785 279.36C198.785 277.392 198.113 275.88 196.769 274.824C195.473 273.768 193.577 273.24 191.081 273.24H180.209V285.48ZM193.025 306.36C198.497 306.36 201.233 304.2 201.233 299.88C201.233 295.704 198.497 293.616 193.025 293.616H180.209V306.36H193.025ZM223.705 264.6H235.297V315H223.705V264.6ZM287.783 274.104H271.655V315H260.135V274.104H244.079V264.6H287.783V274.104ZM296.546 264.6H308.138V297.432L332.186 264.6H343.13V315H331.61V282.24L307.562 315H296.546V264.6Z" fill="#FF657B"/>
</svg>
