<svg width="584" height="357" viewBox="0 0 584 357" fill="none" xmlns="http://www.w3.org/2000/svg">
<path d="M63.2969 152.02L87.5996 119.081L67.2013 91.3423H75.5442L91.8378 113.355L108.24 91.334H116.391L96.0092 118.989L120.295 152.012H111.952L91.771 124.715L71.5396 152.02H63.2969Z" fill="white"/>
<path d="M142.161 153.062C138.068 153.18 134.062 151.862 130.84 149.336C127.742 146.847 126.196 143.435 126.202 139.101C126.12 137.132 126.525 135.174 127.378 133.398C128.232 131.622 129.51 130.083 131.099 128.916C134.369 126.465 138.463 125.237 143.38 125.232C148.595 125.095 153.741 126.449 158.213 129.132V125.323C158.213 118.505 153.702 115.096 144.681 115.096C139.798 115.086 135.023 116.538 130.974 119.264V112.763C135.195 110.218 140.254 108.945 146.149 108.945C151.823 108.945 156.394 110.276 159.865 112.938C163.336 115.599 165.071 119.489 165.071 124.607V141.16C165.071 144.805 166.372 146.625 168.975 146.619C169.828 146.669 170.675 146.457 171.403 146.011V151.387C170.059 152.156 168.52 152.518 166.973 152.428C162.524 152.428 159.834 150.231 158.906 145.836C154.629 150.653 149.047 153.062 142.161 153.062ZM144.072 146.902C146.918 146.926 149.728 146.275 152.273 145.002C154.575 143.897 156.603 142.298 158.213 140.318V134.6C154.308 132.007 149.712 130.648 145.023 130.699C141.324 130.699 138.418 131.405 136.305 132.816C135.334 133.494 134.541 134.396 133.994 135.445C133.447 136.494 133.161 137.659 133.161 138.843C133.161 140.026 133.447 141.191 133.994 142.24C134.541 143.289 135.334 144.191 136.305 144.869C138.639 146.29 141.34 146.997 144.072 146.902Z" fill="white"/>
<path d="M181.383 152.02V110.02H188.324V142.01L214.354 110.02H220.769V152.062H213.828V120.122L187.798 152.02H181.383ZM201.064 103.219C196.842 103.219 193.402 102.005 190.744 99.5767C188.085 97.1485 186.753 93.884 186.747 89.7832H192.721C192.666 90.8556 192.834 91.9277 193.214 92.9319C193.595 93.9361 194.179 94.8506 194.932 95.6176C196.629 97.0188 198.762 97.7853 200.964 97.7853C203.165 97.7853 205.298 97.0188 206.995 95.6176C207.748 94.8475 208.339 93.9345 208.734 92.9324C209.128 91.9303 209.317 90.8595 209.29 89.7832H215.28C215.355 91.6039 215.032 93.4191 214.335 95.103C213.638 96.7869 212.582 98.2992 211.242 99.535C208.452 102.03 204.805 103.35 201.064 103.219Z" fill="white"/>
<path d="M258.078 152.021V110.021H280.37C284.542 110.021 287.723 111.005 289.914 112.972C291.013 113.946 291.881 115.15 292.458 116.499C293.035 117.848 293.306 119.308 293.252 120.773C293.252 125.274 291.486 128.33 287.954 129.942C293.332 131.559 296.021 135.143 296.021 140.694C296.097 142.269 295.808 143.84 295.177 145.286C294.546 146.731 293.591 148.012 292.384 149.029C289.948 151.057 286.447 152.068 281.88 152.063L258.078 152.021ZM265.019 127.666H278.552C280.61 127.79 282.654 127.259 284.392 126.149C285.074 125.648 285.622 124.985 285.984 124.219C286.347 123.454 286.513 122.611 286.469 121.765C286.469 117.837 283.838 115.873 278.577 115.873H265.019V127.666ZM265.019 146.128H280.462C286.185 146.128 289.047 144.019 289.047 139.802C289.047 135.468 286.185 133.301 280.462 133.301H265.019V146.128Z" fill="white"/>
<path d="M325.746 164.24V146.037H331.044C333.586 142.625 335.393 138.146 336.467 132.601C337.54 127.055 338.074 119.529 338.068 110.021H369.771V146.078H377.488V164.282H370.898V152.021H332.345V164.24H325.746ZM338.586 146.037H362.914V115.964H344.401C344.401 129.6 342.462 139.624 338.586 146.037Z" fill="white"/>
<path d="M390.294 169.699C386.996 169.699 384.712 169.296 383.444 168.491V162.165C385.239 163.12 387.251 163.597 389.284 163.548C390.537 163.56 391.776 163.289 392.91 162.757C394.044 162.224 395.043 161.444 395.833 160.473C397.597 158.422 399.432 155.088 401.34 150.471L382.66 110.021H390.294L404.785 142.444L418.751 110.021H426.218L405.57 156.697C403.601 161.031 401.418 164.282 399.02 166.449C396.636 168.609 393.512 169.773 390.294 169.699Z" fill="white"/>
<path d="M435.941 152.021V110.021H442.883V146.078H461.237V110.021H468.095V146.078H486.666V110.021H493.515V152.063L435.941 152.021Z" fill="white"/>
<path d="M509.122 99.1024C508.457 98.4471 508.004 97.6086 507.819 96.6942C507.635 95.7798 507.727 94.8311 508.086 93.9698C508.444 93.1084 509.052 92.3736 509.831 91.8595C510.61 91.3454 511.525 91.0755 512.459 91.0842C513.227 91.0914 513.981 91.2868 514.656 91.6534C515.33 92.02 515.904 92.5465 516.328 93.1867C516.751 93.8268 517.01 94.561 517.083 95.3247C517.156 96.0884 517.039 96.8583 516.745 97.5666C516.45 98.275 515.985 98.9002 515.392 99.3872C514.799 99.8743 514.095 100.208 513.342 100.36C512.589 100.512 511.811 100.476 511.075 100.257C510.339 100.038 509.669 99.6412 509.122 99.1024ZM508.988 152.021V110.021H515.846V152.062L508.988 152.021Z" fill="white"/>
<path d="M27.765 256.039H0V195.361H46.72V210.531H18.7381V215.382H27.765C35.1067 215.382 41.0051 217.26 45.4602 221.016C49.9153 224.772 52.115 229.657 52.0594 235.669C52.1291 238.455 51.5645 241.221 50.4084 243.758C49.2522 246.295 47.5346 248.536 45.3851 250.313C40.9857 254.131 35.1123 256.039 27.765 256.039ZM18.7381 228.534V240.578H26.2883C28.1402 240.651 29.9571 240.06 31.4109 238.911C32.0362 238.406 32.5378 237.765 32.8776 237.037C33.2174 236.309 33.3863 235.513 33.3714 234.71C33.3907 233.872 33.2216 233.04 32.8766 232.275C32.5315 231.511 32.0192 230.833 31.3775 230.293C29.9448 229.099 28.1188 228.481 26.255 228.559L18.7381 228.534Z" fill="#FF657B"/>
<path d="M69.2474 257.248C64.2417 257.248 60.2789 256.414 57.3589 254.747V239.136C59.9866 240.477 62.9113 241.13 65.8602 241.037C69.6201 241.037 72.3399 239.506 74.0196 236.444L52.3281 195.361H72.7097L83.205 218.591L92.6658 195.361H112.188L90.4967 242.512C87.6045 248.813 83.8447 252.98 79.2171 255.014C76.0744 256.41 72.6858 257.169 69.2474 257.248Z" fill="#FF657B"/>
<path d="M124.159 267.216H106.723V240.045H112.88C116.806 232.993 118.773 222.041 118.778 207.189V195.361H166.065V240.045H173.699V267.216H156.179V256.039H124.159V267.216ZM131.618 240.045H147.469V211.398H136.306C136.253 216.59 135.846 221.772 135.088 226.909C134.276 232.521 133.119 236.9 131.618 240.045Z" fill="#FF657B"/>
<path d="M228.186 256.039H180.031V195.361H227.669V211.398H198.686V216.765H221.42V231.501H198.686V240.045H228.186V256.039Z" fill="#FF657B"/>
<path d="M289.791 257.248C279.841 257.248 271.54 254.331 264.887 248.496C258.235 242.662 254.937 235.063 254.993 225.7C254.993 216.388 258.263 208.817 264.804 202.988C271.345 197.159 279.615 194.211 289.616 194.145C295.634 194.145 300.753 195.214 304.975 197.353V214.948C300.443 212.392 295.337 211.021 290.133 210.964C285.896 210.807 281.768 212.333 278.653 215.207C277.213 216.573 276.07 218.219 275.293 220.045C274.517 221.871 274.125 223.836 274.14 225.82C274.156 227.804 274.579 229.763 275.384 231.576C276.189 233.389 277.359 235.018 278.82 236.361C282.007 239.078 286 240.437 290.8 240.437C296.702 240.437 301.707 238.992 305.818 236.102V253.956C301.613 256.151 296.271 257.248 289.791 257.248Z" fill="#FF657B"/>
<path d="M346.013 256.039H313.91V195.361H344.712C350.38 195.361 355.007 196.689 358.594 199.345C362.182 202.001 364.003 205.844 364.059 210.873C364.155 213.539 363.294 216.152 361.631 218.241C360.323 219.957 358.665 221.378 356.767 222.408C359.426 222.93 362.001 224.664 364.493 227.609C367.076 230.617 368.437 234.483 368.306 238.444C368.369 240.905 367.844 243.345 366.773 245.562C365.702 247.779 364.117 249.708 362.149 251.188C358.044 254.417 352.665 256.034 346.013 256.039ZM332.565 209.831V217.982H342.059C343.22 218.023 344.354 217.62 345.229 216.857C345.63 216.515 345.951 216.089 346.168 215.609C346.386 215.13 346.495 214.608 346.489 214.081C346.511 213.509 346.41 212.938 346.192 212.407C345.975 211.877 345.647 211.399 345.229 211.006C344.368 210.214 343.229 209.792 342.059 209.831H332.565ZM332.565 230.985V241.037H342.368C343.835 241.112 345.276 240.633 346.406 239.695C346.907 239.244 347.303 238.689 347.564 238.068C347.825 237.447 347.945 236.775 347.916 236.102C347.939 235.412 347.812 234.724 347.543 234.088C347.273 233.452 346.868 232.882 346.356 232.418C345.263 231.441 343.833 230.926 342.368 230.985H332.565Z" fill="#FF657B"/>
<path d="M390.088 256.039H368.48L386.618 232.285C383.299 230.685 380.478 228.213 378.459 225.134C376.485 222.076 375.461 218.503 375.513 214.865C375.439 212.215 375.962 209.581 377.042 207.159C378.122 204.737 379.732 202.588 381.754 200.871C385.87 197.181 391.396 195.334 398.331 195.328H427.481V256.006H408.801V234.335H406.374L390.088 256.039ZM400.5 220.758H408.843V210.964H400.5C398.987 210.894 397.497 211.354 396.287 212.265C395.761 212.69 395.342 213.233 395.064 213.85C394.786 214.466 394.656 215.14 394.685 215.815C394.66 216.498 394.791 217.177 395.068 217.801C395.346 218.425 395.763 218.978 396.287 219.416C397.487 220.351 398.981 220.826 400.5 220.758Z" fill="#FF657B"/>
<path d="M433.988 211.398V195.361H487.383V211.398H469.904V256.039H451.25V211.398H433.988Z" fill="#FF657B"/>
<path d="M488.825 225.7C488.751 221.558 489.527 217.443 491.105 213.612C492.684 209.78 495.031 206.312 498.002 203.421C504.193 197.237 511.979 194.145 521.362 194.145C530.745 194.145 538.499 197.237 544.622 203.421C550.522 209.355 553.833 217.379 553.833 225.742C553.833 234.105 550.522 242.129 544.622 248.063C538.504 254.175 530.751 257.231 521.362 257.231C511.974 257.231 504.187 254.139 498.002 247.955C495.032 245.068 492.686 241.604 491.108 237.777C489.529 233.949 488.752 229.839 488.825 225.7ZM511.726 236.186C512.976 237.476 514.473 238.501 516.128 239.201C517.782 239.902 519.561 240.263 521.358 240.263C523.155 240.263 524.934 239.902 526.588 239.201C528.243 238.501 529.74 237.476 530.99 236.186C533.543 233.3 534.898 229.55 534.778 225.7C534.922 221.868 533.552 218.132 530.965 215.298C529.73 213.983 528.238 212.935 526.581 212.218C524.925 211.501 523.138 211.132 521.333 211.132C519.528 211.132 517.742 211.501 516.085 212.218C514.428 212.935 512.936 213.983 511.701 215.298C509.114 218.132 507.745 221.868 507.889 225.7C507.782 229.557 509.155 233.308 511.726 236.186Z" fill="#FF657B"/>
<path d="M581.497 233.152H564.912L562.309 195.361H584L581.497 233.152ZM573.071 257.248C570.276 257.231 567.599 256.116 565.619 254.146C563.638 252.175 562.512 249.505 562.484 246.713C562.484 243.9 563.596 241.201 565.58 239.204C567.563 237.207 570.255 236.074 573.071 236.052C574.47 236.034 575.857 236.303 577.148 236.84C578.44 237.378 579.607 238.173 580.58 239.178C581.594 240.142 582.396 241.308 582.935 242.599C583.474 243.891 583.737 245.28 583.708 246.679C583.686 249.492 582.552 252.182 580.553 254.163C578.555 256.145 575.853 257.256 573.038 257.256L573.071 257.248Z" fill="#FF657B"/>
</svg>
