<svg id="Слой_1" data-name="Слой 1" xmlns="http://www.w3.org/2000/svg" viewBox="0 0 700 428.32"><defs><style>.cls-1{fill:#fff;}</style></defs><path class="cls-1" d="M17.15,97Q8.89,97,4.44,92.32A15.78,15.78,0,0,1,0,81a17.87,17.87,0,0,1,.52-3.93,17.45,17.45,0,0,1,1.34-3.94,42.33,42.33,0,0,0,8,1c3.52.2,7.61.29,12.3.29H46A248.42,248.42,0,0,0,71.49,73.2Q83.69,72,93,70.83t12-1.13q7.65,0,11.06,5.68t5.06,15.19A93.51,93.51,0,0,0,110.44,90H88.12a112.67,112.67,0,0,0-13.53.83q-2.9,6-6.4,14.19t-6.93,17.1q-3.4,8.91-6.5,17.71t-5.38,15.85q-4.55,13.68-8,25.28t-6,21.65q-2.59,10-4.45,19.17t-3.3,17.81q-13.84-2.06-23.14-17.35,1.65-6.41,4-13.95t5.58-17.15q3.21-9.6,7.55-21.8t9.91-27.68q2.07-5.79,4.34-12.09T40.39,117q2.18-6.19,3.93-12t3-10.53q-8.68,1-16.43,1.75C25.72,96.74,21.14,97,17.15,97Z"/><path class="cls-1" d="M121.29,229.42a26.25,26.25,0,0,1-18.81-10.33q-7-9.09-7-23.14a63.43,63.43,0,0,1,2.48-17.15,82.55,82.55,0,0,1,7-17.26,96.78,96.78,0,0,1,10.75-15.8,77.74,77.74,0,0,1,13.43-12.81q11.36-8.48,21.28-8.47,6.62,3.51,13,14.67a14.9,14.9,0,0,0,1.86-.11,17.11,17.11,0,0,1,1.86-.1q11,0,11,19.42A71.9,71.9,0,0,1,173.87,183a74.63,74.63,0,0,1-11.78,21.18,70.25,70.25,0,0,1-18,16A71.57,71.57,0,0,1,121.29,229.42Zm10.53-65.09a95.92,95.92,0,0,0-6.61,10.34,97.81,97.81,0,0,0-5.37,11.26,75.88,75.88,0,0,0-3.51,10.95,41.36,41.36,0,0,0-1.24,9.4,27.64,27.64,0,0,0,1.65,9.5c1.1,3,2.34,4.76,3.72,5.17a45.11,45.11,0,0,0,17-7.75,56.2,56.2,0,0,0,13.43-14.15,70.63,70.63,0,0,0,8.88-19.22A79.67,79.67,0,0,0,163,156.9a44.89,44.89,0,0,0-.62-8.48,15.71,15.71,0,0,0-2.06-5.37,44.5,44.5,0,0,0-16.22,8.68A85.6,85.6,0,0,0,131.82,164.33Z"/><path class="cls-1" d="M268.61,150.08a48.4,48.4,0,0,1,.62,8.26A71.9,71.9,0,0,1,265,183a74.63,74.63,0,0,1-11.78,21.18,70.25,70.25,0,0,1-18,16,71.57,71.57,0,0,1-22.83,9.19,26.25,26.25,0,0,1-18.81-10.33q-7-9.09-7-23.14a63.43,63.43,0,0,1,2.48-17.15,82.55,82.55,0,0,1,7-17.26,96.78,96.78,0,0,1,10.75-15.8,77.74,77.74,0,0,1,13.43-12.81q11.36-8.48,21.28-8.47a16.46,16.46,0,0,1,4.75,3.72l-3.3-5a45.19,45.19,0,0,0-5.89-8.37q-3.42-3.82-6.72-7.23c-2.2-2.28-4.34-4.51-6.4-6.72a32.84,32.84,0,0,1-5.17-7.23A26.37,26.37,0,0,1,215.2,83a41.9,41.9,0,0,1,.2-11.78A40.49,40.49,0,0,1,218.91,60a29,29,0,0,1,6.72-9.09q2.26-.63,6.51,2.27t15,2.27c2.61-.82,5.51-1.72,8.68-2.68a75,75,0,0,1,10-2.28,24.67,24.67,0,0,1,10.85.83,29.15,29.15,0,0,1,6.61,3.1,33.73,33.73,0,0,1,5.89,4.65,22.65,22.65,0,0,1,4.13,5.58,13.18,13.18,0,0,1,1.55,6.09A26.39,26.39,0,0,1,292.37,75a35.16,35.16,0,0,1-3.93,4.65,16.86,16.86,0,0,1-5.37,3.61,15.93,15.93,0,0,1-7.23,1.14c.27-.83,0-2-.72-3.61a32.61,32.61,0,0,0-3-5A26.49,26.49,0,0,0,267.68,71a14.76,14.76,0,0,0-5.68-3,10.23,10.23,0,0,0-4.65-.52c-1.45.21-2.86.49-4.24.83s-2.89.65-4.55.93a10.29,10.29,0,0,1-2.06.21l.21.41a.85.85,0,0,0-.62.2q-19.64-1-12,12.71t17.77,31.1c.69,1.1,1.1,1.79,1.24,2.07q4.54,7.85,5.17,8.88c.54,1,1.13,1.89,1.75,2.79a40.91,40.91,0,0,1,2.17,3.61A46.35,46.35,0,0,1,268.61,150.08Zm-45.67,14.25a100,100,0,0,0-12,21.6,75.88,75.88,0,0,0-3.51,10.95,41.36,41.36,0,0,0-1.24,9.4,27.64,27.64,0,0,0,1.65,9.5c1.1,3,2.34,4.76,3.72,5.17a45.11,45.11,0,0,0,17-7.75,56.2,56.2,0,0,0,13.43-14.15,70.63,70.63,0,0,0,8.88-19.22,79.67,79.67,0,0,0,3.2-22.93,44.89,44.89,0,0,0-.62-8.48,15.71,15.71,0,0,0-2.06-5.37,44.5,44.5,0,0,0-16.22,8.68A85.6,85.6,0,0,0,222.94,164.33Z"/><path class="cls-1" d="M287.31,166.61q5.88-16.32,9.19-21a21,21,0,0,1,8.06-6.92q3.51.42,9.4,3.83a30.89,30.89,0,0,1,10,9.4,83,83,0,0,0-13.74,22.11q-4.65,11.35-8.78,24.79a8.53,8.53,0,0,1-.62,1.65,46.09,46.09,0,0,0-1.45,10.75c0,2.89.42,4.79,1.24,5.68a4.54,4.54,0,0,0,3.52,1.34,11.62,11.62,0,0,0,4.64-.93,9.38,9.38,0,0,1,3.21-.93,3.07,3.07,0,0,1,1.44,2.07,13.78,13.78,0,0,1,.21,2.27,48.55,48.55,0,0,1-8.47,5.48,21.49,21.49,0,0,1-9.71,2.17,17.6,17.6,0,0,1-8.16-1.66,14.47,14.47,0,0,1-5.27-4.54,17.88,17.88,0,0,1-2.9-6.61,37.24,37.24,0,0,1-.82-8.06Q281.41,182.94,287.31,166.61Zm31.51-47.94a16.5,16.5,0,0,1,.62-3.72,8.11,8.11,0,0,1-1.76-3.1,11.37,11.37,0,0,1-.72-3.72,34.15,34.15,0,0,1,.51-5.06q.51-3.19,1.35-6.92c.54-2.48,1.24-5.06,2.06-7.75s1.65-5.13,2.48-7.33a18.07,18.07,0,0,1,6.1,1.34,48.25,48.25,0,0,1,7.33,3.51,50.58,50.58,0,0,1,6.82,4.75,28.37,28.37,0,0,1,4.75,4.86c-1.51,1.52-3.51,3.61-6,6.3s-4.89,5.51-7.23,8.47-4.48,5.76-6.41,8.37a46.67,46.67,0,0,0-3.72,5.58,8.06,8.06,0,0,1-4.33-2.17A4.89,4.89,0,0,1,318.82,118.67Z"/><path class="cls-1" d="M311.37,257.11a9.28,9.28,0,0,1-2.27-3.41,11.2,11.2,0,0,1-1-4.44q10.33-8.89,14.77-16.95a35.77,35.77,0,0,0,4.44-17.56,95,95,0,0,0-.51-10.64,83.8,83.8,0,0,0-2-10.23A57.67,57.67,0,0,1,335,195.64a51.13,51.13,0,0,1,9.1,3.3,26.22,26.22,0,0,1,6.71,4.55,11.1,11.1,0,0,1,3.31,5.06Q344.43,242.85,311.37,257.11Z"/><path class="cls-1" d="M121.2,331.34a29.71,29.71,0,0,0-2.73,3.93,71.31,71.31,0,0,0-6.91,15.19,204.15,204.15,0,0,0-5.38,20.31,13.43,13.43,0,0,1-3.67-1.11,31.84,31.84,0,0,1-4.27-2.3,30.16,30.16,0,0,1-3.84-2.91,7.93,7.93,0,0,1-2.22-2.9q.85-4.95,3-13.06t5-17.24q2.9-9.12,6.14-18.34t6.32-16.56a76.41,76.41,0,0,1,3.92-8.28,23.8,23.8,0,0,1,3.76-5,28.65,28.65,0,0,1,5,1.2,38.2,38.2,0,0,1,5,2,38.88,38.88,0,0,1,4.27,2.47,15.18,15.18,0,0,1,2.9,2.48,62.08,62.08,0,0,0-8.11,12.46,135.81,135.81,0,0,0-7.09,17.92q9.22-8.19,16.31-15.7a127,127,0,0,0,13.22-16.73,5.73,5.73,0,0,1,3.59-.85,14.06,14.06,0,0,1,4.61.76,5.66,5.66,0,0,1,3.07,2.14A45.9,45.9,0,0,0,160,307.44q0,7.51,2.22,11.27a13.16,13.16,0,0,1-2.31,3.92,47.84,47.84,0,0,1-4.69,5.47,27.43,27.43,0,0,1-8.2-6.57,28.22,28.22,0,0,1-5.29-9.14,112.3,112.3,0,0,0-13.14,10.42h.34a20.56,20.56,0,0,1,6.66,1.45,19.83,19.83,0,0,1,5.72,3.41,17.24,17.24,0,0,1,4,5,14,14,0,0,1,1.53,6.65,26.49,26.49,0,0,1-.17,3.08q-.16,12.12-.17,17.06-.35,4.1,1.28,5.64a4.86,4.86,0,0,0,3.33,1.53,7.19,7.19,0,0,0,3.24-.85,6.59,6.59,0,0,1,2.74-.85,2.22,2.22,0,0,1,1,1.45,6.67,6.67,0,0,1,.34,2,31.93,31.93,0,0,1-2.73,2.39,27.93,27.93,0,0,1-3.33,2.22,30.85,30.85,0,0,1-3.41,1.7,7.74,7.74,0,0,1-3,.69,13.26,13.26,0,0,1-6.14-1.11,8.41,8.41,0,0,1-3.42-3.93,22.31,22.31,0,0,1-1.79-7.68,89.51,89.51,0,0,1,.26-13.74q.67-8.87.68-11.61,0-4.43-1.88-6.23a6.65,6.65,0,0,0-4.78-1.79,15.17,15.17,0,0,0-4.78.86A22.84,22.84,0,0,0,121.2,331.34Z"/><path class="cls-1" d="M193.4,370.94a21.66,21.66,0,0,1-15.53-8.53q-5.81-7.52-5.81-19.12a52.93,52.93,0,0,1,2.05-14.17,68.19,68.19,0,0,1,5.81-14.25,80.13,80.13,0,0,1,8.87-13.06,64.54,64.54,0,0,1,11.1-10.58q9.38-7,17.58-7,5.46,2.91,10.75,12.12a11.94,11.94,0,0,0,1.54-.09,13.89,13.89,0,0,1,1.53-.08q9,0,9.05,16a59.42,59.42,0,0,1-3.5,20.4,62,62,0,0,1-9.73,17.5,57.81,57.81,0,0,1-14.85,13.22A58.82,58.82,0,0,1,193.4,370.94Zm8.71-53.77a77.66,77.66,0,0,0-5.47,8.54,81.94,81.94,0,0,0-4.43,9.3,63.41,63.41,0,0,0-2.91,9.05,34.44,34.44,0,0,0-1,7.76,22.55,22.55,0,0,0,1.37,7.85c.9,2.51,1.93,3.93,3.07,4.27a37.11,37.11,0,0,0,14.08-6.4,46.42,46.42,0,0,0,11.1-11.69A58.28,58.28,0,0,0,225.23,330,65.73,65.73,0,0,0,227.88,311a37.62,37.62,0,0,0-.51-7,12.86,12.86,0,0,0-1.71-4.44,36.81,36.81,0,0,0-13.4,7.17A69.86,69.86,0,0,0,202.11,317.17Z"/><path class="cls-1" d="M301.62,363.94a13.27,13.27,0,0,1-5.89,4.7,24.64,24.64,0,0,1-7.6,2.13,75.7,75.7,0,0,1-6.48-9.3,99.9,99.9,0,0,1-6.83-13.74q-8.7,7.84-17.41,14.25a194.69,194.69,0,0,1-16.22,10.84,4.7,4.7,0,0,1-3.07-2.05,8.49,8.49,0,0,1-1.36-4.44q3.41-1.87,8.1-4.95t9.56-6.74c3.25-2.45,6.37-5,9.39-7.68a83.6,83.6,0,0,0,7.77-7.77q-2.91-6.82-5.38-14.08t-4.27-14q-1.79-6.74-2.81-12.29a51,51,0,0,1-1-9,5.64,5.64,0,0,1,.6-3.16c.4-.51,1.34-.76,2.82-.76a31.08,31.08,0,0,1,4.18.34c1.65.23,3.33.51,5,.85s3.42.71,5.12,1.11a40.4,40.4,0,0,1,4.44,1.28,18.22,18.22,0,0,0-.34,3.24v3.93a85.51,85.51,0,0,0,1.11,13.57,102.56,102.56,0,0,0,3.67,14.93,129.22,129.22,0,0,0,13-17.83,217,217,0,0,0,12.12-23.47,27.24,27.24,0,0,1,7.34,2.47c2.05,1.09,3.36,2.25,3.93,3.5q-1.89,7.86-10.59,19.8A218.57,218.57,0,0,1,288.3,335.1q2.4,6.48,5.81,13.74T301.62,363.94Z"/><path class="cls-1" d="M380.13,296a16.73,16.73,0,0,1,4,.59,22.1,22.1,0,0,1,4.18,1.54,18.56,18.56,0,0,1,3.16,2c.85.69,1.28,1.31,1.28,1.88q-3.42,7.17-6.32,14.42t-4.95,13.92a116.34,116.34,0,0,0-3.16,12.46,54.6,54.6,0,0,0-1.11,10.07,25.83,25.83,0,0,0,1,7.93,7.61,7.61,0,0,0,3.41,4.53,17.73,17.73,0,0,1-5.29,2.22,23.48,23.48,0,0,1-5.8.85q-9.22,0-9.22-12.63,0-9.74,6.48-26.63a102.93,102.93,0,0,1-7.85,14.7A105.29,105.29,0,0,1,351,356a54,54,0,0,1-9.31,8.58,22,22,0,0,1-8.62,4q-6.31,0-10.24-5.74t-3.92-14.66A56.2,56.2,0,0,1,323,327.93a90.52,90.52,0,0,1,10.5-19.71,74.43,74.43,0,0,1,13.91-15.17q7.51-6.09,14.51-6.09a13.21,13.21,0,0,1,3.84,2.05,30,30,0,0,1,4.1,3.57,28.43,28.43,0,0,1,3.33,4.17,9,9,0,0,1,1.53,3.66q-6.82,1-14.08,6.64a69.06,69.06,0,0,0-13.14,13.54,79.55,79.55,0,0,0-9.65,17,44.07,44.07,0,0,0-3.75,16.85c0,2.16.79,3.52,2.39,4.09q4.95-1,11.43-8.45t15.71-23q1.69-3.07,3.84-6.82t4.35-7.86q2.22-4.09,4.35-8.27T380.13,296Z"/><path class="cls-1" d="M467.1,320.16q2.47-4.86,3.84-7.6,9.39-20.47,14.34-20.48a12.28,12.28,0,0,1,6.4,1.79,9.57,9.57,0,0,1,4.18,5.21,85.4,85.4,0,0,1-5,12.29q-3.49,7.17-7.08,15.11t-6.4,15.61a40.63,40.63,0,0,0-2.82,13.83c0,2.39.34,3.95,1,4.69a3.75,3.75,0,0,0,2.9,1.11,9.51,9.51,0,0,0,3.84-.77,7.62,7.62,0,0,1,2.65-.76,2.5,2.5,0,0,1,1.19,1.7,12,12,0,0,1,.17,1.88,39.39,39.39,0,0,1-7,4.52,17.61,17.61,0,0,1-8,1.8,14.64,14.64,0,0,1-6.74-1.37,12,12,0,0,1-4.35-3.75,14.77,14.77,0,0,1-2.39-5.47,30.24,30.24,0,0,1-.69-6.65,45.4,45.4,0,0,1,1.54-11.61,26,26,0,0,1,.85-2.73,38,38,0,0,1-14.17,6.66,27.54,27.54,0,0,1-7.16-1.8,21.13,21.13,0,0,1-7-4.52,29.2,29.2,0,0,1-6-7.17q-3.24,6.66-6.31,14-5.64,19.29-8.45,23a19.33,19.33,0,0,1-4.87,4.86,12.56,12.56,0,0,1-5.29-5.72,36.09,36.09,0,0,1-2.56-7.59,46.35,46.35,0,0,1,.94-8.2q.94-5,2.56-11t4-12.71q2.4-6.66,5.29-13.32a178.29,178.29,0,0,1,11.87-23.55q5.37-8.53,6.74-9.22a18.08,18.08,0,0,1,8.36,6.06,31.61,31.61,0,0,1,5.81,10.33q-1.89,4.6-9.73,17.75a.5.5,0,0,1-.17.34q2.39,9.73,6.65,13.83a16.7,16.7,0,0,0,9.73,5.12,20.68,20.68,0,0,0,10.67-6.06A42,42,0,0,0,467.1,320.16Z"/><path class="cls-1" d="M509.94,319.05q4.86-13.49,7.6-17.32a17.05,17.05,0,0,1,6.65-5.72q2.91.35,7.77,3.15a25.7,25.7,0,0,1,8.28,7.77,68.67,68.67,0,0,0-11.35,18.26q-3.84,9.39-7.26,20.49a6.28,6.28,0,0,1-.51,1.36,38.12,38.12,0,0,0-1.19,8.88c0,2.39.34,3.95,1,4.69a3.75,3.75,0,0,0,2.9,1.11,9.48,9.48,0,0,0,3.84-.77,7.74,7.74,0,0,1,2.65-.76,2.5,2.5,0,0,1,1.19,1.7,10.92,10.92,0,0,1,.17,1.88,39.32,39.32,0,0,1-7,4.52,17.65,17.65,0,0,1-8,1.8,14.64,14.64,0,0,1-6.74-1.37,12,12,0,0,1-4.35-3.75,14.77,14.77,0,0,1-2.39-5.47,30.26,30.26,0,0,1-.68-6.65Q505.07,332.54,509.94,319.05Zm26-39.6a14,14,0,0,1,.51-3.07,6.74,6.74,0,0,1-1.45-2.56,9.38,9.38,0,0,1-.6-3.07,28.63,28.63,0,0,1,.43-4.19c.28-1.76.65-3.67,1.11-5.71s1-4.19,1.71-6.41,1.36-4.23,2.05-6.06a15.24,15.24,0,0,1,5,1.11,39.72,39.72,0,0,1,6.06,2.91,40.42,40.42,0,0,1,5.63,3.92,23.48,23.48,0,0,1,3.93,4c-1.25,1.26-2.9,3-5,5.21s-4,4.55-6,7-3.7,4.75-5.3,6.91a38,38,0,0,0-3.07,4.61,6.78,6.78,0,0,1-3.58-1.79A4,4,0,0,1,536,279.45Z"/><path class="cls-1" d="M589.91,361.21a13.23,13.23,0,0,1-4.36-6.83,27.45,27.45,0,0,1-1.11-7,19.52,19.52,0,0,1,.86-6.14c-.46,0-1.48.91-3.07,2.72s-3.33,4-5.21,6.47-3.73,4.93-5.55,7.32-3.18,4.14-4.09,5.27a26.6,26.6,0,0,1-4.19,3.74,8.15,8.15,0,0,1-3.15,1.53,18.89,18.89,0,0,1-5.72-.94,23.21,23.21,0,0,1-5.63-2.66,19.58,19.58,0,0,1-4.61-4.13,12.89,12.89,0,0,1-2.65-5.49q0-4.79.26-7.86a44.94,44.94,0,0,1,1.11-6.65,131.8,131.8,0,0,1,4.52-14.68,159,159,0,0,1,6.91-16.13A113,113,0,0,1,563,294.9a45.31,45.31,0,0,1,10.33-10.84,27.6,27.6,0,0,1,3.58.26,23.62,23.62,0,0,1,4.19.93,32.56,32.56,0,0,1,4.09,1.63,10.34,10.34,0,0,1,3.33,2.47,137,137,0,0,0-7.76,11.44q-6.24,9.72-13.92,28a57.47,57.47,0,0,0-2,5.46c-.8,2.39-1.6,4.9-2.39,7.51s-1.46,5.18-2,7.68a31.86,31.86,0,0,0-.77,6,4,4,0,0,0,.43,2,5.81,5.81,0,0,0,.77,1q2.57-1,6.49-5.63t10.92-14.17q1.71-2.39,4-5.46t4.69-6.57c1.6-2.34,3.1-4.75,4.53-7.26a49.13,49.13,0,0,0,3.5-7.51c.45-1.36,1.05-3,1.79-4.86a59.25,59.25,0,0,1,2.73-5.89,64.48,64.48,0,0,1,3.76-6.23,34.81,34.81,0,0,1,5-5.89,24.57,24.57,0,0,1,4.78.51A40.73,40.73,0,0,1,618,290.8a24,24,0,0,1,4,1.71,9.1,9.1,0,0,1,2.56,2q-3.07,7.51-6.83,14.85t-7,14.42a124.38,124.38,0,0,0-5.46,14.09,45,45,0,0,0-2.22,13.65,28.42,28.42,0,0,0,.6,6.23,31.42,31.42,0,0,0,1.28,4.44c.45,1.19.88,2.19,1.28,3a4.69,4.69,0,0,1,.6,2.05c0,.11-.12.28-.35.51a.5.5,0,0,1-.34.17,12.28,12.28,0,0,1-3.07-.51,37.88,37.88,0,0,1-4.18-1.46c-1.54-.62-3.07-1.33-4.61-2.13A43.64,43.64,0,0,1,589.91,361.21Zm21.16-85.69a27.17,27.17,0,0,1-7.17-1.79,22.78,22.78,0,0,1-7.08-4.44,30.79,30.79,0,0,1-6-7.51,33.72,33.72,0,0,1-3.85-11,6.89,6.89,0,0,1,5-3.76c2.45-.57,4.69-1.08,6.74-1.54q2.38,10.94,6.92,15.37a17,17,0,0,0,9.81,5.12,20.72,20.72,0,0,0,10.67-6.06,39.85,39.85,0,0,0,7.08-11.18q1.71.51,2.73,3.24a27.88,27.88,0,0,1-8.36,14.76A35.28,35.28,0,0,1,611.07,275.52Z"/><path class="cls-1" d="M631.9,378.11a8.75,8.75,0,0,1-3.93-.94,15.46,15.46,0,0,1-3.33-2.22,10.93,10.93,0,0,1-2.3-2.73,5.06,5.06,0,0,1-.86-2.3,34.56,34.56,0,0,1,.52-5.3,37.31,37.31,0,0,1,1.53-6.23,19.76,19.76,0,0,1,2.56-5.12,4.29,4.29,0,0,1,3.41-2.13,17,17,0,0,1,9.65,3.33,23.56,23.56,0,0,1,7.25,7.42,25.13,25.13,0,0,0-3.58,5q-1.55,2.82-3.07,5.29a19.78,19.78,0,0,1-3.42,4.18A6.36,6.36,0,0,1,631.9,378.11Zm3.75-45.23q0-4.62,2.48-13.4t6.4-19.46q3.91-10.66,8.87-22t10-21.25q5-9.9,9.64-17.16t8-9.64a17.39,17.39,0,0,1,5.89,2.48,40.68,40.68,0,0,1,5.89,4.43,36.79,36.79,0,0,1,4.78,5.21,11.6,11.6,0,0,1,2.39,4.78,120.85,120.85,0,0,0-17.24,17.84A172.66,172.66,0,0,0,667,288.33a196.89,196.89,0,0,0-12.72,27.73,175.19,175.19,0,0,0-8.19,30.13,33.37,33.37,0,0,1-4-1.28,9.53,9.53,0,0,1-3.33-2.13A10,10,0,0,1,636.5,339,18.53,18.53,0,0,1,635.65,332.88Z"/></svg>