<svg id="Слой_1" data-name="Слой 1" xmlns="http://www.w3.org/2000/svg" viewBox="0 0 700 428.32"><defs><style>.cls-1{fill:#404040;}.cls-2{fill:#ff657b;}</style></defs><path class="cls-1" d="M75.87,182.39,105,142.87,80.55,109.59h10L110.08,136l19.66-26.42h9.77l-24.43,33.18,29.11,39.62h-10L110,149.63,85.75,182.39Z"/><path class="cls-1" d="M170.4,183.64a21,21,0,0,1-13.57-4.47q-5.57-4.48-5.56-12.28a14.43,14.43,0,0,1,5.87-12.22q5.88-4.41,14.72-4.42a32.86,32.86,0,0,1,17.78,4.68v-4.57q0-12.27-16.22-12.27a29.29,29.29,0,0,0-16.43,5v-7.8q7.59-4.58,18.19-4.58,10.2,0,16.44,4.79t6.24,14v19.86q0,6.56,4.68,6.55a5,5,0,0,0,2.91-.73v6.45a9.56,9.56,0,0,1-5.31,1.25q-8,0-9.67-7.91Q182.78,183.64,170.4,183.64Zm2.29-7.39a21.56,21.56,0,0,0,9.83-2.28,20.75,20.75,0,0,0,7.12-5.62v-6.86a28,28,0,0,0-15.81-4.68q-6.65,0-10.45,2.54a8.82,8.82,0,0,0,0,14.46A16.77,16.77,0,0,0,172.69,176.25Z"/><path class="cls-1" d="M217.41,182.39V132h8.32v38.38L256.93,132h7.69v50.44H256.3V144.12l-31.2,38.27ZM241,123.84q-7.59,0-12.37-4.37t-4.79-11.75H231a9.32,9.32,0,0,0,2.65,7,11.35,11.35,0,0,0,14.46,0,9.67,9.67,0,0,0,2.75-7h7.18a15.08,15.08,0,0,1-4.84,11.7A17.38,17.38,0,0,1,241,123.84Z"/><path class="cls-1" d="M309.34,182.39V132h26.72q7.5,0,11.44,3.54a11.92,11.92,0,0,1,4,9.36q0,8.1-6.35,11,9.67,2.91,9.67,12.9a12.31,12.31,0,0,1-4.36,10q-4.38,3.65-12.59,3.64Zm8.32-29.22h16.22a11.69,11.69,0,0,0,7-1.82,6.13,6.13,0,0,0,2.49-5.26q0-7.07-9.46-7.07H317.66Zm0,22.15h18.51q10.29,0,10.29-7.59,0-7.8-10.29-7.8H317.66Z"/><path class="cls-1" d="M390.45,197.05V175.21h6.35q4.57-6.14,6.5-16.12T405.22,132h38v43.26h9.25v21.84h-7.9V182.39H398.36v14.66Zm15.39-21.84H435V139.13H412.81Q412.81,163.67,405.84,175.21Z"/><path class="cls-1" d="M467.82,203.6q-5.93,0-8.21-1.45v-7.59a14.17,14.17,0,0,0,7,1.66,10,10,0,0,0,7.85-3.69q3.17-3.69,6.6-12L458.67,132h9.15l17.37,38.9L501.93,132h8.95L486.13,188q-3.54,7.8-7.85,11.7A15.06,15.06,0,0,1,467.82,203.6Z"/><path class="cls-1" d="M522.53,182.39V132h8.32v43.26h22V132h8.22v43.26h22.26V132h8.21v50.44Z"/><path class="cls-1" d="M610.25,118.9a5.62,5.62,0,0,1,4-9.62,5.62,5.62,0,1,1-4,9.62Zm-.16,63.49V132h8.22v50.44Z"/><path class="cls-2" d="M33.28,307.19H0v-72.8H56v18.2H22.46v5.82H33.28q13.2,0,21.21,6.76t7.91,17.58a22.09,22.09,0,0,1-8,17.57Q46.49,307.19,33.28,307.19Zm-10.82-33v14.45h9.05a9.31,9.31,0,0,0,6.14-2A6.33,6.33,0,0,0,40,281.6a6.73,6.73,0,0,0-2.39-5.3,9,9,0,0,0-6.14-2.08Z"/><path class="cls-2" d="M83,308.64q-9,0-14.25-3V286.91a20.94,20.94,0,0,0,10.19,2.28q6.76,0,9.78-5.51l-26-49.29H87.15l12.58,27.87,11.34-27.87h23.4l-26,56.57q-5.2,11.34-13.52,15A31.18,31.18,0,0,1,83,308.64Z"/><path class="cls-2" d="M148.82,320.6h-20.9V288h7.38q7.06-12.69,7.07-39.42V234.39h56.68V288h9.15V320.6h-21V307.19H148.82ZM157.76,288h19V253.63H163.38a137.51,137.51,0,0,1-1.46,18.61Q160.46,282.34,157.76,288Z"/><path class="cls-2" d="M273.51,307.19H215.79v-72.8h57.1v19.24H238.15v6.44H265.4v17.68H238.15V288h35.36Z"/><path class="cls-2" d="M347.35,308.64q-17.89,0-29.85-10.5t-11.86-27.35q0-16.76,11.76-27.25t29.74-10.61q10.82,0,18.41,3.85v21.11a37,37,0,0,0-17.79-4.78A19.23,19.23,0,0,0,334,258.2a17.37,17.37,0,0,0,.2,25.38q5.73,4.89,14.36,4.89,10.61,0,18-5.2v21.42Q359,308.64,347.35,308.64Z"/><path class="cls-2" d="M414.74,307.19H376.26v-72.8h36.92q10.19,0,16.64,4.78T436.37,253a13.43,13.43,0,0,1-2.91,8.84,18.32,18.32,0,0,1-5.83,5q4.78.94,9.26,6.24a19,19,0,0,1,4.57,13,18.54,18.54,0,0,1-7.38,15.29Q426.7,307.18,414.74,307.19Zm-16.12-55.44v9.78H410a5.49,5.49,0,0,0,3.8-1.35,4.31,4.31,0,0,0,1.51-3.33,4.82,4.82,0,0,0-1.51-3.69,5.35,5.35,0,0,0-3.8-1.41Zm0,25.38v12.06h11.75a7,7,0,0,0,4.84-1.61,5.47,5.47,0,0,0,1.81-4.31,5.7,5.7,0,0,0-1.87-4.42,6.76,6.76,0,0,0-4.78-1.72Z"/><path class="cls-2" d="M467.57,307.19h-25.9l21.74-28.5a24.34,24.34,0,0,1-9.78-8.58,22.15,22.15,0,0,1-3.53-12.32A21.26,21.26,0,0,1,457.58,241q7.4-6.64,19.87-6.65h34.94v72.8H490v-26h-2.91Zm12.48-42.33h10V253.11h-10a7.79,7.79,0,0,0-5.05,1.56,5.19,5.19,0,0,0-1.92,4.26,5.37,5.37,0,0,0,1.92,4.32A7.65,7.65,0,0,0,480.05,264.86Z"/><path class="cls-2" d="M520.19,253.63V234.39h64v19.24H563.24v53.56H540.88V253.63Z"/><path class="cls-2" d="M585.92,270.79a36.4,36.4,0,0,1,11-26.73q11.13-11.13,28-11.13t27.88,11.13a38,38,0,0,1,0,53.56q-11,11-27.88,11t-28-11.13A36.36,36.36,0,0,1,585.92,270.79Zm27.45,12.58a16.07,16.07,0,0,0,23.09,0A18.14,18.14,0,0,0,641,270.79a17.54,17.54,0,0,0-4.57-12.48,15.83,15.83,0,0,0-23.09,0,17.54,17.54,0,0,0-4.57,12.48A18.14,18.14,0,0,0,613.37,283.37Z"/><path class="cls-2" d="M697,279.73H677.12L674,234.39h26ZM686.9,308.64A12.77,12.77,0,0,1,674.21,296a12.79,12.79,0,0,1,12.69-12.79,12.3,12.3,0,0,1,9,3.75,12.08,12.08,0,0,1,3.75,9,12.79,12.79,0,0,1-12.79,12.69Z"/></svg>