<svg id="Слой_1" data-name="Слой 1" xmlns="http://www.w3.org/2000/svg" viewBox="0 0 59 66"><defs><style>.cls-1{fill:#74ae26;}.cls-2{fill:#4a4a4a;}</style></defs><circle class="cls-1" cx="12.77" cy="8.17" r="7.07"/><circle class="cls-1" cx="28.99" cy="9.17" r="7.07"/><circle class="cls-1" cx="46.02" cy="7.99" r="7.07"/><path class="cls-2" d="M29.3,16.6a7.48,7.48,0,1,0-7.47-7.48A7.48,7.48,0,0,0,29.3,16.6Zm0-12.87a5.4,5.4,0,1,1-5.39,5.39A5.39,5.39,0,0,1,29.3,3.73Z"/><path class="cls-2" d="M46,15.42A7.48,7.48,0,1,0,38.5,8,7.48,7.48,0,0,0,46,15.42ZM46,2.55A5.4,5.4,0,1,1,40.58,8,5.4,5.4,0,0,1,46,2.55Z"/><path class="cls-2" d="M58.77,24.67a6.89,6.89,0,0,0-1.9-3.25,3.6,3.6,0,0,0-3-6.43h0l-12,3.5-24.86.09L5.12,15.09h0a3.6,3.6,0,0,0-3,6.43,6.89,6.89,0,0,0-1.9,3.25C-.12,26.36,0,36.67.16,45a3.42,3.42,0,0,0,3.4,3.34H5V61.32a4.22,4.22,0,0,0,4.21,4.21h0a3.91,3.91,0,0,0,2.92-1.27,4.34,4.34,0,0,0,1.11-2.94V48.07h1.09V61.32a4.21,4.21,0,0,0,7.4,2.75,3.67,3.67,0,0,0,2.86,1.37h.89a3.67,3.67,0,0,0,3.67-3.67V47.59h1.28V61.77a3.67,3.67,0,0,0,3.67,3.67,4.64,4.64,0,0,0,3.18-1.36l0,0a4.21,4.21,0,0,0,7.33-2.82V48h1.09V61.23a4.3,4.3,0,0,0,1.11,2.94,3.91,3.91,0,0,0,2.92,1.27h0A4.22,4.22,0,0,0,54,61.23V48.29h1.41A3.42,3.42,0,0,0,58.84,45C59,36.58,59.12,26.27,58.77,24.67ZM20.68,61.32a2.13,2.13,0,1,1-4.26,0V47a1,1,0,0,0-1-1H12.21a1,1,0,0,0-1,1v14.3a2,2,0,0,1-1.95,2.13h0a2.14,2.14,0,0,1-2.13-2.13v-14a1,1,0,0,0-1-1.05H3.56A1.32,1.32,0,0,1,2.24,45C2,33.84,2,26.25,2.26,25.2a5.68,5.68,0,0,1,2-2.81l10.87,3.76a1.06,1.06,0,0,0,.31.05l5.24.18Zm15.56.44a1.3,1.3,0,0,1-.42.85,2.56,2.56,0,0,1-1.71.74,1.59,1.59,0,0,1-1.59-1.58V46.55a1,1,0,0,0-1-1H28.12a1,1,0,0,0-1,1V61.77a1.59,1.59,0,0,1-1.59,1.58H24.6A1.59,1.59,0,0,1,23,61.77V43c0-.25-.08-17.64-.08-17.64a1,1,0,0,0-1-1l-6.26-.2L3.69,20a1.51,1.51,0,0,1,.86-2.9l12.08,3.54a1,1,0,0,0,.3.05l7.5-.06.18,0h0l17.46-.05a.93.93,0,0,0,.29-.05L54.45,17a1.49,1.49,0,0,1,1.81,1.05,1.51,1.51,0,0,1-.95,1.85L43.34,24l-6.1.2a1,1,0,0,0-1,1V61.76ZM56.76,44.91a1.32,1.32,0,0,1-1.32,1.29H53a1,1,0,0,0-1,1v14a2.13,2.13,0,0,1-2.13,2.12h0a2,2,0,0,1-2-2.12V46.93a1,1,0,0,0-1-1H43.62a1,1,0,0,0-1,1v14.3a2.13,2.13,0,0,1-4.26.14V26.29l5.24-.18a1.06,1.06,0,0,0,.31-.05L54.74,22.3a5.64,5.64,0,0,1,2,2.81C57,26.16,57,33.75,56.76,44.91Z"/><path class="cls-2" d="M12.75,15.51A7.48,7.48,0,1,0,5.28,8,7.49,7.49,0,0,0,12.75,15.51Zm0-12.86A5.39,5.39,0,1,1,7.36,8,5.39,5.39,0,0,1,12.75,2.65Z"/><circle class="cls-2" cx="52.98" cy="43.58" r="1.2"/><circle class="cls-2" cx="52.98" cy="38.96" r="1.2"/><circle class="cls-2" cx="52.98" cy="34.34" r="1.2"/><circle class="cls-2" cx="6.58" cy="43.58" r="1.2"/><circle class="cls-2" cx="6.58" cy="38.96" r="1.2"/><circle class="cls-2" cx="6.58" cy="34.34" r="1.2"/></svg>