<svg id="Слой_1" data-name="Слой 1" xmlns="http://www.w3.org/2000/svg" viewBox="0 0 52 51"><defs><style>.cls-1{fill:#b953aa;}.cls-2{fill:#4a4a4a;}</style></defs><circle class="cls-1" cx="41.98" cy="9.88" r="8.86"/><circle class="cls-1" cx="40.77" cy="40.48" r="8.86"/><circle class="cls-1" cx="9.97" cy="25.58" r="8.86"/><path class="cls-2" d="M40.82,30.81a10,10,0,0,0-8.88,5.39L19.17,29.69A9.89,9.89,0,0,0,20,25.63a10,10,0,0,0-.86-4.08l13.67-7.28a10,10,0,1,0-.87-4.1A9.43,9.43,0,0,0,32.14,12L18,19.56a10,10,0,1,0,0,12.12l13.12,6.7a9.85,9.85,0,0,0-.3,2.45,10,10,0,1,0,10-10ZM42,2.47a7.7,7.7,0,1,1-7.7,7.7A7.71,7.71,0,0,1,42,2.47ZM10,33.33a7.71,7.71,0,1,1,7.7-7.7A7.71,7.71,0,0,1,10,33.33Zm30.8,15.2a7.7,7.7,0,1,1,7.71-7.7A7.72,7.72,0,0,1,40.82,48.53Z"/></svg>