<svg id="Слой_1" data-name="Слой 1" xmlns="http://www.w3.org/2000/svg" viewBox="0 0 47 56"><defs><style>.cls-1{fill:#b953aa;}.cls-2{fill:#4a4a4a;}</style></defs><path class="cls-1" d="M35.59,32.85A6.64,6.64,0,0,0,23.54,29a6.64,6.64,0,0,0-12.06,3.84c0,.22,0,.44,0,.66a5.1,5.1,0,0,0,0,.57c0,6.66,12.06,12.05,12.06,12.05s12.05-5.39,12.05-12.05a5.17,5.17,0,0,0,0-.57Q35.59,33.18,35.59,32.85Z"/><path class="cls-2" d="M29,25.17a7.69,7.69,0,0,0-5.41,2.24,7.68,7.68,0,0,0-13.1,5.44c0,.21,0,.43,0,.65a5.78,5.78,0,0,0,0,.58c0,3.11,2.18,6.27,6.46,9.37a38,38,0,0,0,6.21,3.63,1.07,1.07,0,0,0,.43.09,1,1,0,0,0,.42-.09,37.55,37.55,0,0,0,6.21-3.63c4.29-3.1,6.46-6.26,6.46-9.37a5.78,5.78,0,0,0,0-.58c0-.22,0-.44,0-.65A7.69,7.69,0,0,0,29,25.17Zm5.57,8.46a3.4,3.4,0,0,1,0,.45c0,3-3,5.82-5.57,7.66A37,37,0,0,1,23.54,45a37.43,37.43,0,0,1-5.45-3.24c-2.54-1.84-5.57-4.67-5.57-7.66a3.4,3.4,0,0,1,0-.45.81.81,0,0,0,0-.22,5.4,5.4,0,0,1,0-.56,5.6,5.6,0,0,1,10.17-3.24,1,1,0,0,0,.85.44,1,1,0,0,0,.85-.44,5.6,5.6,0,0,1,10.16,3.24,5.4,5.4,0,0,1,0,.56A.81.81,0,0,0,34.52,33.63Z"/><path class="cls-2" d="M21.81,18.47h0a1.69,1.69,0,0,0,0-3.38h0A1.7,1.7,0,0,0,20.59,18,1.71,1.71,0,0,0,21.81,18.47Z"/><path class="cls-2" d="M46,9.53H37.57V1.22a1.06,1.06,0,0,0-.4-.83,1.07,1.07,0,0,0-.9-.18L.78,9.57a1,1,0,0,0-.78,1V54.78a1,1,0,0,0,1,1H46a1,1,0,0,0,1-1V10.57A1,1,0,0,0,46,9.53Zm-10.47-7v7H9.07ZM2.08,53.74V11.38l.21-.06a1,1,0,0,0,.72.3H44.92v4.11H26.86a1,1,0,0,0,0,2.08H44.92V53.74Z"/></svg>