<svg width="40" height="24" viewBox="0 0 40 24" fill="none" xmlns="http://www.w3.org/2000/svg">
<path d="M30.5612 6.19997C30.5215 6.19997 36.5555 0 36.5122 0C35.5168 0.0179709 31.8236 0 31.8236 0L19.5608 12.8025L7.29812 0C7.29812 0 3.60488 0.0179709 2.60943 0C2.57156 0 8.60554 6.19997 8.56046 6.19997C3.83751 6.19997 0 10.0619 0 14.826C0 19.5901 3.83751 23.4521 8.57128 23.4521C12.737 23.4521 17.083 19.7716 19.5717 17.2593C22.0549 19.7752 26.4009 23.4521 30.572 23.4521C35.3058 23.4521 39.1433 19.5901 39.1433 14.826C39.1433 10.0619 35.295 6.19997 30.5612 6.19997ZM8.83637 20.3072C7.37763 20.3072 5.97864 19.7297 4.94715 18.7018C3.91567 17.6739 3.33618 16.2797 3.33618 14.826C3.33618 13.3723 3.91567 11.9782 4.94715 10.9503C5.97864 9.92237 7.37763 9.34489 8.83637 9.34489C12.7136 9.34489 17.2219 14.9159 17.2219 14.9159C17.2219 14.9159 12.8939 20.3072 8.83637 20.3072ZM30.2961 20.3072C26.2386 20.3072 21.9106 14.9159 21.9106 14.9159C21.9106 14.9159 26.4189 9.34489 30.2961 9.34489C31.7549 9.34489 33.1539 9.92237 34.1853 10.9503C35.2168 11.9782 35.7963 13.3723 35.7963 14.826C35.7963 16.2797 35.2168 17.6739 34.1853 18.7018C33.1539 19.7297 31.7549 20.3072 30.2961 20.3072Z" fill="white" fill-opacity="0.6"/>
<path d="M21.4863 21.8614L19.557 19.9388L17.5614 21.9275L19.4907 23.8501L21.4863 21.8614Z" fill="white" fill-opacity="0.6"/>
</svg>
